<svg width="193" height="38" viewBox="0 0 193 38" fill="none" xmlns="http://www.w3.org/2000/svg">
<path d="M58.3717 8.07953C61.4962 7.94714 63.4027 9.05926 64.4089 9.90659C64.8591 10.3567 64.9915 10.6215 64.6472 11.4689C64.3824 12.028 64.1782 12.6139 64.0382 13.2165C64.0117 13.2694 64.0647 13.2959 64.0912 13.243C65.0974 11.972 70.5521 4.92852 74.2062 2.38653C74.2591 2.36005 74.2327 2.28061 74.1797 2.30709C73.0411 2.67779 68.9104 4.34598 65.4416 9.90659C65.2562 10.1714 65.1503 10.2773 65.0444 10.0919C64.5678 8.97982 63.4027 6.99389 61.0726 5.9612C60.1321 5.53846 59.1055 5.3422 58.0754 5.38819C57.0453 5.43417 56.0403 5.72113 55.1412 6.226C53.4731 7.17924 51.7254 9.11222 52.1756 13.0046C52.1756 13.0311 52.255 13.0576 52.255 13.0046C52.5198 12.0249 53.8702 8.26489 58.3717 8.07953Z" fill="#011E41"/>
<path d="M143.74 12.6336L127.006 6.86115C124.781 6.06678 122.001 5.32537 119.671 6.09326C117.341 6.86116 115.911 7.84088 114.137 8.953C112.949 9.75343 111.632 10.3445 110.244 10.7006C103.995 11.9981 95.2837 7.41722 87.3399 3.47183C85.8571 2.67746 84.1889 1.96252 82.7061 1.16815C77.9134 -1.24145 75.848 0.744482 75.3979 1.24759C75.3934 1.2543 75.3905 1.26196 75.3894 1.26997C75.3883 1.27798 75.3891 1.28613 75.3916 1.2938C75.3942 1.30146 75.3985 1.30844 75.4041 1.3142C75.4098 1.31996 75.4167 1.32435 75.4243 1.32702C77.119 0.770962 79.0255 0.982794 81.8588 2.59802C88.2402 6.22566 99.9705 13.5074 106.987 14.1164C111.515 14.3547 112.998 12.8719 115.302 11.3891C116.679 10.5153 118.585 9.40315 121.339 9.0854C127.244 8.07919 142.072 12.819 143.529 13.2161H143.635C143.712 13.2161 143.786 13.1855 143.84 13.1308C143.895 13.0762 143.926 13.0021 143.926 12.9249C143.926 12.8636 143.909 12.8035 143.876 12.7519C143.843 12.7002 143.796 12.6591 143.74 12.6336Z" fill="#011E41"/>
<path d="M115.964 26.0325C115.062 25.7545 114.199 25.363 113.395 24.8674C113.249 24.7799 113.128 24.6557 113.045 24.507C112.961 24.3584 112.918 24.1906 112.919 24.0201C112.934 23.8846 112.987 23.756 113.071 23.6485C113.155 23.5411 113.268 23.4589 113.395 23.4111C113.607 23.3052 114.243 23.1463 115.17 23.8612C116.096 24.5762 117.711 25.0528 118.638 24.6026C119.565 24.1525 119.644 23.57 119.644 22.5902C119.644 19.9953 116.388 18.8037 114.084 18.8037C110.403 18.8037 108.073 21.3192 107.649 23.8083C107.146 26.8269 109.291 28.7069 111.489 29.4748L111.701 29.5542C112.892 29.8985 114.508 30.428 114.719 31.2489C114.753 31.3993 114.743 31.556 114.692 31.7011C114.64 31.8463 114.549 31.974 114.428 32.0697C113.819 32.6788 112.76 31.9903 111.78 31.3283C110.8 30.6663 110.324 30.3751 109.768 30.3751C108.603 30.3751 107.782 30.9047 107.464 31.8579C107.146 32.8112 107.596 34.7706 108.788 35.6974C111.78 38.1335 115.884 37.5774 118.215 35.8033C120.545 34.0292 120.995 31.699 119.856 29.0511C119.009 27.0917 117.526 26.5621 115.964 26.0325Z" fill="#011E41"/>
<path d="M102.168 19.1743C100.341 19.1743 99.4143 20.3394 99.4143 22.6431V33.6849C99.4143 35.9091 100.844 36.9153 102.168 36.9153C102.523 36.9159 102.874 36.846 103.201 36.7096C103.528 36.5732 103.825 36.3731 104.075 36.1209C104.669 35.4521 104.982 34.5792 104.948 33.6849V22.6431C104.948 20.3394 103.995 19.1743 102.168 19.1743Z" fill="#011E41"/>
<path d="M125.39 19.1743C123.563 19.1743 122.636 20.3394 122.636 22.6431V33.6849C122.636 35.9091 124.066 36.9153 125.39 36.9153C125.745 36.9159 126.096 36.846 126.423 36.7096C126.75 36.5732 127.047 36.3731 127.297 36.1209C127.891 35.4521 128.204 34.5792 128.17 33.6849V22.6431C128.17 20.3394 127.217 19.1743 125.39 19.1743Z" fill="#011E41"/>
<path d="M94.3833 21.5048C93.0063 20.2868 91.3382 19.5983 89.1934 19.4129C88.3674 19.3153 87.536 19.2711 86.7043 19.2805H84.4536C81.7263 19.307 81.2231 20.578 81.2231 23.12V32.8908C81.2231 34.3736 81.2231 35.4593 82.4677 36.3066C83.7122 37.1539 86.5984 36.9686 89.1934 36.6508C90.5173 36.439 91.4441 36.2537 91.8677 36.0683C93.2367 35.5065 94.4405 34.6063 95.3664 33.452C96.2922 32.2978 96.9098 30.9273 97.1613 29.4691C97.4127 28.0109 97.2897 26.5128 96.8038 25.1151C96.3179 23.7175 95.485 22.4661 94.3833 21.4783M89.2463 31.3021C88.4942 31.4955 87.719 31.5846 86.9426 31.5668H86.7838V24.4704H86.9426C87.7199 24.4298 88.4985 24.5193 89.2463 24.7352C90.8351 25.2383 91.6559 26.3505 91.6559 28.0451C91.6559 29.7398 90.8615 30.8784 89.2463 31.3285" fill="#011E41"/>
<path d="M12.1921 25.9001C12.8276 26.5356 13.4367 27.1711 14.4958 27.1711C15.2286 27.1711 15.9318 26.8819 16.4525 26.3662C16.9732 25.8505 17.2691 25.1501 17.2761 24.4173C17.2761 21.0015 12.0597 18.8037 9.30592 18.8037C7.64495 18.8123 6.01626 19.2633 4.58748 20.1103C3.15869 20.9573 1.98142 22.1698 1.17683 23.6229C0.383758 25.01 -0.0223408 26.5846 0.000948203 28.1822C0.0242372 29.7798 0.476059 31.3419 1.30923 32.7052C1.98253 33.8793 2.90971 34.888 4.02298 35.6577C5.13624 36.4274 6.40745 36.9385 7.74365 37.1537C9.10647 37.3774 10.5019 37.2964 11.8297 36.9164C13.1574 36.5364 14.3845 35.8668 15.4226 34.956C16.5877 33.9498 17.2496 32.7847 17.2761 31.752C17.2808 31.3983 17.2099 31.0477 17.0684 30.7235C16.9268 30.3993 16.7178 30.109 16.4553 29.872C14.84 28.2832 13.5691 29.2365 12.0862 30.3221C10.6034 31.4078 8.88225 32.7317 6.73744 30.6399C6.22657 30.1335 5.87648 29.4877 5.73105 28.7833C5.58563 28.0789 5.65132 27.3472 5.91992 26.6799C6.18851 26.0127 6.64806 25.4396 7.24096 25.0324C7.83387 24.6251 8.53377 24.402 9.25296 24.3908C10.6828 24.3908 11.4507 25.1587 12.1921 25.9001Z" fill="#011E41"/>
<path d="M27.7354 18.8043C26.1429 18.8247 24.5816 19.2482 23.1971 20.0354C21.8126 20.8226 20.6501 21.9477 19.8182 23.3057C19.0161 24.6299 18.5637 26.1362 18.5035 27.6832C18.4433 29.2303 18.7772 30.7672 19.474 32.1497C20.0465 33.2901 20.8483 34.2999 21.8293 35.116C22.8102 35.9321 23.9491 36.5368 25.1746 36.8922C26.4001 37.2477 27.6858 37.3463 28.9512 37.1818C30.2165 37.0173 31.4343 36.5932 32.5282 35.9362C36.1558 33.7385 37.7445 29.6872 36.6059 25.5829C36.1025 23.6265 34.9576 21.8955 33.3543 20.6666C31.751 19.4377 29.7819 18.782 27.7619 18.8043H27.7354ZM31.3101 28.0719C31.2836 29.7931 30.1715 31.6731 27.7619 31.6731H27.7354C25.4053 31.6731 24.2137 29.846 24.1872 28.0455C24.1608 26.2449 25.2994 24.4178 27.7619 24.3913C30.2245 24.3649 31.3101 26.3508 31.3101 28.0719Z" fill="#011E41"/>
<path d="M57.0745 21.7687C56.9789 21.1145 56.6747 20.5086 56.2072 20.0411C55.7396 19.5736 55.1338 19.2694 54.4795 19.1737C53.3674 19.0149 52.3877 19.5709 51.8581 20.6301L48.7336 27.3028L45.9533 21.0538C45.3707 19.7563 44.1792 19.0414 42.9082 19.2002C41.6372 19.3591 40.7104 20.074 40.4191 21.7687L38.4067 33.1812C38.2988 33.661 38.2974 34.1586 38.4026 34.639C38.5078 35.1193 38.7171 35.5708 39.0158 35.9615C39.2772 36.273 39.6063 36.5208 39.978 36.686C40.3497 36.8512 40.7541 36.9294 41.1606 36.9148C43.6496 36.9148 43.9673 34.4787 44.2851 32.3074C44.3116 32.0161 44.3645 31.7248 44.391 31.4601L44.4969 30.8246L44.7088 31.4336C44.8412 31.7513 44.9471 32.0956 45.0795 32.4927C45.715 34.4522 46.5358 36.9148 48.7336 36.9148C50.9313 36.9148 51.7522 34.4522 52.3877 32.4927L52.7584 31.4336L52.9702 30.8775L53.7381 34.7964C54.0824 36.4646 55.5652 37.1001 56.8627 36.8618C58.1601 36.6235 59.4841 35.4054 59.1399 33.2606L57.0745 21.7687Z" fill="#011E41"/>
<path d="M69.8636 18.8037C68.2706 18.8217 66.7083 19.2442 65.3234 20.0316C63.9385 20.819 62.7764 21.9454 61.9463 23.3052C61.137 24.6267 60.6804 26.1338 60.6201 27.6823C60.5599 29.2307 60.898 30.7687 61.6021 32.1492C62.371 33.688 63.5542 34.9816 65.0184 35.8845C66.4826 36.7874 68.1698 37.2636 69.89 37.2596C72.252 37.1331 74.4754 36.1057 76.1026 34.389C77.7298 32.6723 78.6367 30.397 78.6367 28.0317C78.6367 25.6664 77.7298 23.3911 76.1026 21.6744C74.4754 19.9577 72.252 18.9303 69.89 18.8037H69.8636ZM73.4118 28.0714C73.4118 29.7925 72.2996 31.6726 69.89 31.6726H69.8636C67.5334 31.6726 66.3154 29.8455 66.3154 28.0449C66.3154 26.2443 67.4275 24.4173 69.89 24.3908C72.3526 24.3643 73.4382 26.3503 73.4118 28.0714Z" fill="#011E41"/>
<path d="M161.746 18.8043C160.15 18.825 158.586 19.2515 157.201 20.0437C155.816 20.8358 154.656 21.9675 153.829 23.3322C153.014 24.6469 152.555 26.1503 152.494 27.6956C152.434 29.2409 152.775 30.7755 153.484 32.1497C154.261 33.6827 155.445 34.9714 156.908 35.8732C158.371 36.7751 160.054 37.2551 161.772 37.2602C163.453 37.267 165.102 36.8088 166.539 35.9362C170.166 33.7385 171.755 29.6607 170.616 25.5829C170.113 23.6265 168.968 21.8955 167.365 20.6666C165.761 19.4377 163.792 18.782 161.772 18.8043H161.746ZM165.321 28.0719C165.294 29.7931 164.182 31.6731 161.772 31.6731C159.442 31.6731 158.224 29.846 158.224 28.0455C158.224 26.2449 159.336 24.4178 161.772 24.3913C164.209 24.3649 165.347 26.3508 165.321 28.0719Z" fill="#011E41"/>
<path d="M185.18 29.0511C184.359 27.0917 182.85 26.5621 181.288 26.0325C180.414 25.7148 179.514 25.4235 178.719 24.8409C178.576 24.7586 178.458 24.6384 178.379 24.4936C178.3 24.3489 178.262 24.185 178.269 24.0201C178.282 23.8836 178.333 23.7536 178.418 23.6456C178.502 23.5376 178.616 23.4562 178.746 23.4111C179.196 23.1992 179.858 23.3581 180.52 23.8612C181.632 24.735 183.035 25.0528 183.962 24.6026C184.889 24.1525 184.968 23.57 184.968 22.5902C184.968 19.9953 181.711 18.8037 179.408 18.8037C175.727 18.8037 173.397 21.3457 172.973 23.8347C172.47 26.8269 174.615 28.7069 176.813 29.4748L176.972 29.5277C178.19 29.872 179.831 30.428 180.043 31.2224C180.079 31.3768 180.07 31.538 180.019 31.6877C179.967 31.8375 179.875 31.9698 179.752 32.0697C179.116 32.6788 178.11 31.9903 177.104 31.3283C176.098 30.6663 175.648 30.3751 175.118 30.3751C173.926 30.3751 173.106 30.9047 172.788 31.8579C172.47 32.8112 172.92 34.7441 174.085 35.6974C177.13 38.1335 181.235 37.5774 183.565 35.7768C185.895 33.9762 186.319 31.699 185.18 29.0511Z" fill="#011E41"/>
<path d="M148.983 21.7692C148.888 21.115 148.583 20.5091 148.116 20.0416C147.648 19.5741 147.042 19.2699 146.388 19.1743C145.848 19.0929 145.296 19.1914 144.818 19.4546C144.339 19.7178 143.961 20.131 143.74 20.6306L140.642 27.3033L137.862 21.0543C137.279 19.7568 136.061 19.0419 134.817 19.2007C133.572 19.3596 132.619 20.0745 132.301 21.7692L130.315 33.1817C130.207 33.6615 130.206 34.1591 130.311 34.6395C130.417 35.1198 130.626 35.5713 130.924 35.962C131.181 36.273 131.505 36.5208 131.872 36.6861C132.24 36.8514 132.64 36.9298 133.043 36.9153C135.532 36.9153 135.876 34.4792 136.194 32.3344C136.221 32.0408 136.265 31.749 136.326 31.4606L136.406 30.8251L136.644 31.4341C136.75 31.7518 136.882 32.0961 136.988 32.4668C137.624 34.4527 138.445 36.9153 140.642 36.9153C142.84 36.9153 143.661 34.4527 144.323 32.4932C144.429 32.0961 144.561 31.7518 144.667 31.4341L144.879 30.8515L145.647 34.7969C145.965 36.4651 147.447 37.1006 148.745 36.8623C150.042 36.624 151.393 35.4059 151.049 33.2611L148.983 21.7692Z" fill="#011E41"/>
<path d="M191.323 21.7163C191.31 21.553 191.234 21.4013 191.111 21.2926C191.211 21.2259 191.292 21.1352 191.348 21.0288C191.404 20.9223 191.431 20.8036 191.429 20.6836C191.43 20.5857 191.412 20.4885 191.376 20.3976C191.34 20.3067 191.286 20.2239 191.217 20.154C191.114 20.0717 190.995 20.0106 190.867 19.9743C190.74 19.9379 190.607 19.927 190.476 19.9422C190.271 19.9299 190.066 19.9478 189.867 19.9951H189.761V22.4842H190.317V21.5044H190.476C190.661 21.5044 190.74 21.5574 190.82 21.8487C190.849 22.0486 190.902 22.2443 190.979 22.4312V22.4842H191.561L191.482 22.3253C191.455 22.2194 191.402 21.9546 191.323 21.7163ZM190.899 20.7101C190.899 20.9219 190.74 21.0278 190.502 21.0278H190.317V20.4188H190.476C190.899 20.4188 190.899 20.6306 190.899 20.7101Z" fill="#011E41"/>
<path d="M190.529 18.936C190.079 18.936 189.638 19.0696 189.264 19.3198C188.889 19.57 188.597 19.9257 188.425 20.3418C188.253 20.7579 188.208 21.2158 188.295 21.6575C188.383 22.0992 188.6 22.505 188.919 22.8235C189.237 23.1419 189.643 23.3588 190.085 23.4467C190.526 23.5345 190.984 23.4895 191.4 23.3171C191.816 23.1447 192.172 22.8529 192.422 22.4784C192.673 22.1039 192.806 21.6636 192.806 21.2132C192.799 20.6114 192.557 20.0362 192.132 19.6106C191.706 19.185 191.131 18.9429 190.529 18.936ZM192.303 21.2132C192.303 21.5641 192.199 21.9071 192.004 22.1989C191.809 22.4906 191.532 22.718 191.208 22.8523C190.884 22.9866 190.527 23.0217 190.183 22.9532C189.839 22.8848 189.523 22.7158 189.274 22.4677C189.026 22.2196 188.857 21.9035 188.789 21.5593C188.72 21.2152 188.756 20.8585 188.89 20.5343C189.024 20.2101 189.252 19.9331 189.543 19.7381C189.835 19.5432 190.178 19.4391 190.529 19.4391C190.999 19.4391 191.451 19.6261 191.783 19.9588C192.116 20.2915 192.303 20.7427 192.303 21.2132Z" fill="#011E41"/>
</svg>
