<svg viewBox="0 0 230.19 45.9" xmlns="http://www.w3.org/2000/svg" data-name="Capa 2" id="Capa_2">
  <defs>
    <style>
      .cls-1, .cls-2 {
        fill: #255a60;
        stroke-width: 0px;
      }

      .cls-2 {
        fill-rule: evenodd;
      }
    </style>
  </defs>
  <g data-name="Capa 1" id="Capa_1-2">
    <g>
      <path d="M230.19,38.36c0-2.05-1.65-3.71-3.7-3.71s-3.7,1.66-3.7,3.71,1.65,3.71,3.7,3.71,3.7-1.66,3.7-3.71" class="cls-2"></path>
      <path d="M7.4,38.36c0-2.05-1.65-3.71-3.7-3.71s-3.7,1.66-3.7,3.71,1.65,3.71,3.7,3.71,3.7-1.66,3.7-3.71" class="cls-2"></path>
      <path d="M206.22,27.63c2.88-5.3,10.24-1.28,7.36,4.02-2.9,5.34-10.27,1.32-7.36-4.02M217.43,33.74c5.53-10.18-9.54-18.39-15.06-8.21-5.54,10.2,9.53,18.41,15.06,8.21M187.5,28.76l1.45.48,5.28-15.9c-1.38-.46-2.76-.92-4.15-1.38l-2.58,7.78-5.42-10.52-1.47-.49-5.3,15.96c1.38.46,2.79.93,4.19,1.4l2.59-7.81,5.41,10.48ZM164.6,18.36l1.85-9.07,1.92.39.75-3.66-7.98-1.64-.75,3.66,1.92.39-1.85,9.07-2.08-.43-.75,3.68,8.31,1.7.75-3.68-2.08-.43ZM140.79,8.76l-5.85-7.85-1.57-.15-1.55,16.73c1.45.13,2.9.27,4.35.4l.69-7.44,3.18,4.04.48.04,3.89-3.39-.69,7.44c1.45.13,2.9.27,4.35.4l1.55-16.73-1.52-.14-7.3,6.63ZM116.21,11.19l-3.82.05,1.83-4.43,1.99,4.38ZM118.65,16.92l4.18-.05v-.62S115.06,0,115.06,0l-1.84.03-7.31,16.44v.62s4.19-.06,4.19-.06l.95-2.12,6.59-.09,1.01,2.09ZM80.6,10.73c.55,5.69,5.1,8.13,9.33,7.74,3.07-.28,6.11-1.91,6.98-5.5.42-1.67.27-3.27.02-4.93l-7.87.73.34,3.7,3.54-.33c-.61,1.67-1.66,2.22-3.38,2.38-2.52.23-4.31-1.43-4.56-4.19-.24-2.55,1.02-4.78,3.71-5.03,1.69-.16,2.84.31,3.66,1.68l4.18-.39c-1.19-4.07-4.85-5.49-8.21-5.2-4.23.39-8.25,3.65-7.75,9.35M64.45,13.49l-2.98.7c-.31-1.3-.64-2.75-.95-4.08.98-.23,1.99-.49,2.98-.7,2.38-.54,3.21,3.55.95,4.08M68.53,15.41c3.46-3.76.49-11.2-5.91-9.72-2.37.56-4.79,1.13-7.14,1.68,1.28,5.45,2.55,10.88,3.82,16.31,1.35-.32,2.77-.65,4.16-.98l-1.12-4.8,2.16-.51,3.91,4.15,4.65-1.09-.14-.61-4.4-4.42ZM43.18,10.77c-3.68,1.36-6.16,2.28-9.79,3.62,1.92,5.21,3.85,10.46,5.79,15.72,3.63-1.34,6.32-2.34,9.99-3.7-.44-1.19-.88-2.4-1.32-3.57-2.35.87-3.7,1.37-6,2.22-.35-.94-.68-1.84-1.02-2.76l5.33-1.97c-.44-1.19-.88-2.38-1.31-3.57l-5.33,1.97-.82-2.22c2.31-.85,3.47-1.28,5.8-2.15-.45-1.21-.89-2.43-1.32-3.59M20.68,29.66l-2.69,1.46c-.65-1.2-1.63-3.01-2.28-4.2.86-.47,1.79-1.01,2.69-1.47,2.19-1.17,4.34,3.08,2.28,4.21M21.88,38.27l-2.04-3.76,2.71-1.48c7.03-3.83,1.09-14.76-5.95-10.95-2.16,1.18-4.34,2.37-6.46,3.52,2.67,4.92,5.33,9.82,7.99,14.72,1.24-.67,2.5-1.36,3.76-2.05" class="cls-1"></path>
      <path d="M133.03,36.12c-.2-5.33-6.14-9.47-10.88-6.2-1.31.91-2.6,3.69-2.69,5.3-.17,3.13,2.65,5.96,5.74,4.16-.33-1.56-1.86-2.13-1.89-3.6-.04-2.18,2.63-2.69,4.33-1.83.75.38,1.35.99,1.51,1.78.94,4.57-3.54,7.09-6.92,7.16-3.11.07-4.59-2.19-5.6-4.33.67-1.72,1.39-4.01,1.56-6.22.16-2.06.1-5.05-2.57-4.99-4.07.09-2.13,9.14-1.26,11.65-1.95,3.17-7.67,4.96-10.86,1.58-2.24-2.77.26-7.37,3.2-7.07,1.13.11,1.98.96,1.9,2.14-.14,2.19-2.84,1.66-3.3,3.83,3.76,2,7-2.21,6.26-6.2-.49-2.66-3.58-4.61-6.22-4.33-3.66.39-6.23,3.27-7.55,6.02-.98-.94-2.85-2.04-4.65-2.19-1.67-.15-4.89.42-4.59,3.16,1.26,1.46,3.02.6,5.32,1.07,4.95,1,5.79,7.91,11.48,8.8,4.39.69,7.6-2.27,10.12-5.16,1.29,1.88,2.28,4.27,5.91,4.82,2.86.45,6.28-.43,8.45-1.95,2.25-1.58,3.68-4.4,6.4-5.07,1.48-.36,2.69-.43,4.31-.37,1.62-.57,1.32-2.67.23-3.41-2.69-1.84-6.3,1.06-7.73,1.46M115.83,30.24c1.4.99.46,4.67-.17,6.23-.78-3.53-.7-6.66.17-6.23" class="cls-2"></path>
    </g>
  </g>
</svg>